<svg xmlns="http://www.w3.org/2000/svg" viewBox="0 0 512 512">
    <!-- Dark slate background -->
    <rect width="512" height="512" rx="112" fill="#0f172a"/>
    
    <!-- Drone Body -->
    <path fill="#3b82f6" d="M375.3 228.3L342 165H170L136.7 228.3C124 252 135 281 161 289l18 4-43 83c-6 11.5 2 25 15 25h12c9 0 17-5.5 21-13l37-72h64l37 72c4 7.5 12 13 21 13h12c13 0 21-13.5 15-25l-43-83 18-4c26-8 37-37 24-60.7z"/>
    
    <!-- Camera Gimbal -->
    <circle cx="256" cy="310" r="16" fill="#e2e8f0" />
    <path fill="#e2e8f0" d="M236 290h40v10h-40z"/>

    <!-- Rotors (Propellers) -->
    <circle cx="150" cy="140" r="45" fill="#64748b" fill-opacity="0.8"/>
    <circle cx="150" cy="140" r="15" fill="#94a3b8" />
    
    <circle cx="362" cy="140" r="45" fill="#64748b" fill-opacity="0.8"/>
    <circle cx="362" cy="140" r="15" fill="#94a3b8" />
    
    <circle cx="150" cy="300" r="45" fill="#64748b" fill-opacity="0.8"/>
    <circle cx="150" cy="300" r="15" fill="#94a3b8" />
    
    <circle cx="362" cy="300" r="45" fill="#64748b" fill-opacity="0.8"/>
    <circle cx="362" cy="300" r="15" fill="#94a3b8" />
</svg>
